<mxfile host="app.diagrams.net" modified="2020-10-18T13:01:36.411Z" agent="5.0 (Windows)" etag="T6Eo4Uw9nXF-F-p6TU8L" version="13.8.0" type="github" pages="2">
  <diagram id="R2lEEEUBdFMjLlhIrx00" name="Ej1 - E/R Inicial">
    <mxGraphModel dx="1185" dy="659" grid="1" gridSize="10" guides="1" tooltips="1" connect="1" arrows="1" fold="1" page="1" pageScale="1" pageWidth="1169" pageHeight="827" math="0" shadow="0" extFonts="Permanent Marker^https://fonts.googleapis.com/css?family=Permanent+Marker">
      <root>
        <mxCell id="0" />
        <mxCell id="1" parent="0" />
        <mxCell id="LUNA-PoPyeFDFRL9OIlv-86" style="edgeStyle=orthogonalEdgeStyle;rounded=0;orthogonalLoop=1;jettySize=auto;html=1;entryX=0;entryY=0.5;entryDx=0;entryDy=0;endArrow=none;endFill=0;exitX=1;exitY=0.5;exitDx=0;exitDy=0;" edge="1" parent="1" source="LUNA-PoPyeFDFRL9OIlv-74" target="LUNA-PoPyeFDFRL9OIlv-85">
          <mxGeometry relative="1" as="geometry" />
        </mxCell>
        <mxCell id="LUNA-PoPyeFDFRL9OIlv-91" value="1" style="edgeLabel;html=1;align=center;verticalAlign=middle;resizable=0;points=[];" vertex="1" connectable="0" parent="LUNA-PoPyeFDFRL9OIlv-86">
          <mxGeometry x="-0.8041" y="-2" relative="1" as="geometry">
            <mxPoint as="offset" />
          </mxGeometry>
        </mxCell>
        <mxCell id="LUNA-PoPyeFDFRL9OIlv-88" style="edgeStyle=orthogonalEdgeStyle;rounded=0;orthogonalLoop=1;jettySize=auto;html=1;entryX=0;entryY=0.5;entryDx=0;entryDy=0;endArrow=none;endFill=0;exitX=0.5;exitY=0;exitDx=0;exitDy=0;" edge="1" parent="1" source="LUNA-PoPyeFDFRL9OIlv-74" target="LUNA-PoPyeFDFRL9OIlv-84">
          <mxGeometry relative="1" as="geometry" />
        </mxCell>
        <mxCell id="LUNA-PoPyeFDFRL9OIlv-92" value="M" style="edgeLabel;html=1;align=center;verticalAlign=middle;resizable=0;points=[];" vertex="1" connectable="0" parent="LUNA-PoPyeFDFRL9OIlv-88">
          <mxGeometry x="-0.7822" y="1" relative="1" as="geometry">
            <mxPoint as="offset" />
          </mxGeometry>
        </mxCell>
        <mxCell id="LUNA-PoPyeFDFRL9OIlv-74" value="Usuario" style="whiteSpace=wrap;html=1;align=center;" vertex="1" parent="1">
          <mxGeometry x="200" y="280" width="100" height="40" as="geometry" />
        </mxCell>
        <mxCell id="LUNA-PoPyeFDFRL9OIlv-100" style="edgeStyle=orthogonalEdgeStyle;rounded=0;orthogonalLoop=1;jettySize=auto;html=1;entryX=0;entryY=0.5;entryDx=0;entryDy=0;endArrow=none;endFill=0;" edge="1" parent="1" source="LUNA-PoPyeFDFRL9OIlv-75" target="LUNA-PoPyeFDFRL9OIlv-99">
          <mxGeometry relative="1" as="geometry" />
        </mxCell>
        <mxCell id="LUNA-PoPyeFDFRL9OIlv-101" style="edgeStyle=orthogonalEdgeStyle;rounded=0;orthogonalLoop=1;jettySize=auto;html=1;endArrow=none;endFill=0;" edge="1" parent="1" source="LUNA-PoPyeFDFRL9OIlv-75" target="LUNA-PoPyeFDFRL9OIlv-98">
          <mxGeometry relative="1" as="geometry" />
        </mxCell>
        <mxCell id="LUNA-PoPyeFDFRL9OIlv-102" style="edgeStyle=orthogonalEdgeStyle;rounded=0;orthogonalLoop=1;jettySize=auto;html=1;entryX=0;entryY=0.5;entryDx=0;entryDy=0;endArrow=none;endFill=0;" edge="1" parent="1" source="LUNA-PoPyeFDFRL9OIlv-75" target="LUNA-PoPyeFDFRL9OIlv-97">
          <mxGeometry relative="1" as="geometry" />
        </mxCell>
        <mxCell id="LUNA-PoPyeFDFRL9OIlv-103" style="edgeStyle=orthogonalEdgeStyle;rounded=0;orthogonalLoop=1;jettySize=auto;html=1;endArrow=none;endFill=0;exitX=0.83;exitY=1;exitDx=0;exitDy=0;exitPerimeter=0;entryX=0.5;entryY=0;entryDx=0;entryDy=0;" edge="1" parent="1" source="LUNA-PoPyeFDFRL9OIlv-75" target="NvSHbqSQvRT90MNqPqhs-3">
          <mxGeometry relative="1" as="geometry">
            <mxPoint x="690" y="400" as="targetPoint" />
          </mxGeometry>
        </mxCell>
        <mxCell id="NvSHbqSQvRT90MNqPqhs-7" value="N" style="edgeLabel;html=1;align=center;verticalAlign=middle;resizable=0;points=[];" vertex="1" connectable="0" parent="LUNA-PoPyeFDFRL9OIlv-103">
          <mxGeometry x="-0.8883" relative="1" as="geometry">
            <mxPoint as="offset" />
          </mxGeometry>
        </mxCell>
        <mxCell id="LUNA-PoPyeFDFRL9OIlv-117" style="edgeStyle=orthogonalEdgeStyle;rounded=0;orthogonalLoop=1;jettySize=auto;html=1;entryX=0;entryY=0.5;entryDx=0;entryDy=0;endArrow=none;endFill=0;" edge="1" parent="1" source="LUNA-PoPyeFDFRL9OIlv-75" target="LUNA-PoPyeFDFRL9OIlv-116">
          <mxGeometry relative="1" as="geometry" />
        </mxCell>
        <mxCell id="LUNA-PoPyeFDFRL9OIlv-120" value="N" style="edgeLabel;html=1;align=center;verticalAlign=middle;resizable=0;points=[];" vertex="1" connectable="0" parent="LUNA-PoPyeFDFRL9OIlv-117">
          <mxGeometry x="-0.8587" y="1" relative="1" as="geometry">
            <mxPoint as="offset" />
          </mxGeometry>
        </mxCell>
        <mxCell id="LUNA-PoPyeFDFRL9OIlv-75" value="Mensaje" style="whiteSpace=wrap;html=1;align=center;" vertex="1" parent="1">
          <mxGeometry x="490" y="280" width="100" height="40" as="geometry" />
        </mxCell>
        <mxCell id="LUNA-PoPyeFDFRL9OIlv-81" style="edgeStyle=orthogonalEdgeStyle;rounded=0;orthogonalLoop=1;jettySize=auto;html=1;endArrow=none;endFill=0;entryX=0;entryY=0.5;entryDx=0;entryDy=0;" edge="1" parent="1" source="LUNA-PoPyeFDFRL9OIlv-76" target="LUNA-PoPyeFDFRL9OIlv-74">
          <mxGeometry relative="1" as="geometry">
            <mxPoint x="170" y="300" as="targetPoint" />
          </mxGeometry>
        </mxCell>
        <mxCell id="LUNA-PoPyeFDFRL9OIlv-76" value="Nick" style="ellipse;whiteSpace=wrap;html=1;align=center;" vertex="1" parent="1">
          <mxGeometry x="20" y="255" width="100" height="40" as="geometry" />
        </mxCell>
        <mxCell id="LUNA-PoPyeFDFRL9OIlv-80" style="edgeStyle=orthogonalEdgeStyle;rounded=0;orthogonalLoop=1;jettySize=auto;html=1;entryX=0;entryY=0.5;entryDx=0;entryDy=0;endArrow=none;endFill=0;" edge="1" parent="1" source="LUNA-PoPyeFDFRL9OIlv-77" target="LUNA-PoPyeFDFRL9OIlv-74">
          <mxGeometry relative="1" as="geometry" />
        </mxCell>
        <mxCell id="LUNA-PoPyeFDFRL9OIlv-77" value="Teléfono" style="ellipse;whiteSpace=wrap;html=1;align=center;fontStyle=4;" vertex="1" parent="1">
          <mxGeometry x="20" y="205" width="100" height="40" as="geometry" />
        </mxCell>
        <mxCell id="LUNA-PoPyeFDFRL9OIlv-82" style="edgeStyle=orthogonalEdgeStyle;rounded=0;orthogonalLoop=1;jettySize=auto;html=1;entryX=0;entryY=0.5;entryDx=0;entryDy=0;endArrow=none;endFill=0;" edge="1" parent="1" source="LUNA-PoPyeFDFRL9OIlv-78" target="LUNA-PoPyeFDFRL9OIlv-74">
          <mxGeometry relative="1" as="geometry" />
        </mxCell>
        <mxCell id="LUNA-PoPyeFDFRL9OIlv-78" value="Estado" style="ellipse;whiteSpace=wrap;html=1;align=center;" vertex="1" parent="1">
          <mxGeometry x="20" y="305" width="100" height="40" as="geometry" />
        </mxCell>
        <mxCell id="LUNA-PoPyeFDFRL9OIlv-83" style="edgeStyle=orthogonalEdgeStyle;rounded=0;orthogonalLoop=1;jettySize=auto;html=1;entryX=0;entryY=0.5;entryDx=0;entryDy=0;endArrow=none;endFill=0;" edge="1" parent="1" source="LUNA-PoPyeFDFRL9OIlv-79" target="LUNA-PoPyeFDFRL9OIlv-74">
          <mxGeometry relative="1" as="geometry" />
        </mxCell>
        <mxCell id="LUNA-PoPyeFDFRL9OIlv-79" value="Foto" style="ellipse;whiteSpace=wrap;html=1;align=center;" vertex="1" parent="1">
          <mxGeometry x="20" y="355" width="100" height="40" as="geometry" />
        </mxCell>
        <mxCell id="LUNA-PoPyeFDFRL9OIlv-89" style="edgeStyle=orthogonalEdgeStyle;rounded=0;orthogonalLoop=1;jettySize=auto;html=1;entryX=0.25;entryY=0;entryDx=0;entryDy=0;endArrow=none;endFill=0;" edge="1" parent="1" source="LUNA-PoPyeFDFRL9OIlv-84" target="LUNA-PoPyeFDFRL9OIlv-75">
          <mxGeometry relative="1" as="geometry" />
        </mxCell>
        <mxCell id="LUNA-PoPyeFDFRL9OIlv-93" value="N" style="edgeLabel;html=1;align=center;verticalAlign=middle;resizable=0;points=[];" vertex="1" connectable="0" parent="LUNA-PoPyeFDFRL9OIlv-89">
          <mxGeometry x="0.7716" y="-2" relative="1" as="geometry">
            <mxPoint as="offset" />
          </mxGeometry>
        </mxCell>
        <mxCell id="LUNA-PoPyeFDFRL9OIlv-84" value="Recibe" style="shape=rhombus;perimeter=rhombusPerimeter;whiteSpace=wrap;html=1;align=center;" vertex="1" parent="1">
          <mxGeometry x="330" y="195" width="120" height="60" as="geometry" />
        </mxCell>
        <mxCell id="LUNA-PoPyeFDFRL9OIlv-87" style="edgeStyle=orthogonalEdgeStyle;rounded=0;orthogonalLoop=1;jettySize=auto;html=1;entryX=0;entryY=0.5;entryDx=0;entryDy=0;endArrow=none;endFill=0;" edge="1" parent="1" source="LUNA-PoPyeFDFRL9OIlv-85" target="LUNA-PoPyeFDFRL9OIlv-75">
          <mxGeometry relative="1" as="geometry" />
        </mxCell>
        <mxCell id="LUNA-PoPyeFDFRL9OIlv-90" value="N" style="edgeLabel;html=1;align=center;verticalAlign=middle;resizable=0;points=[];" vertex="1" connectable="0" parent="LUNA-PoPyeFDFRL9OIlv-87">
          <mxGeometry x="0.861" relative="1" as="geometry">
            <mxPoint x="-7.240000000000002" as="offset" />
          </mxGeometry>
        </mxCell>
        <mxCell id="LUNA-PoPyeFDFRL9OIlv-85" value="Envía" style="shape=rhombus;perimeter=rhombusPerimeter;whiteSpace=wrap;html=1;align=center;" vertex="1" parent="1">
          <mxGeometry x="330" y="270" width="120" height="60" as="geometry" />
        </mxCell>
        <mxCell id="LUNA-PoPyeFDFRL9OIlv-95" style="edgeStyle=orthogonalEdgeStyle;rounded=0;orthogonalLoop=1;jettySize=auto;html=1;endArrow=none;endFill=0;" edge="1" parent="1" source="LUNA-PoPyeFDFRL9OIlv-94" target="LUNA-PoPyeFDFRL9OIlv-84">
          <mxGeometry relative="1" as="geometry" />
        </mxCell>
        <mxCell id="LUNA-PoPyeFDFRL9OIlv-94" value="fecha" style="ellipse;whiteSpace=wrap;html=1;align=center;" vertex="1" parent="1">
          <mxGeometry x="340" y="120" width="100" height="40" as="geometry" />
        </mxCell>
        <mxCell id="LUNA-PoPyeFDFRL9OIlv-97" value="Fecha" style="ellipse;whiteSpace=wrap;html=1;align=center;" vertex="1" parent="1">
          <mxGeometry x="630" y="280" width="100" height="40" as="geometry" />
        </mxCell>
        <mxCell id="LUNA-PoPyeFDFRL9OIlv-98" value="Texto" style="ellipse;whiteSpace=wrap;html=1;align=center;" vertex="1" parent="1">
          <mxGeometry x="630" y="220" width="100" height="40" as="geometry" />
        </mxCell>
        <mxCell id="LUNA-PoPyeFDFRL9OIlv-99" value="Código" style="ellipse;whiteSpace=wrap;html=1;align=center;fontStyle=4;" vertex="1" parent="1">
          <mxGeometry x="630" y="160" width="100" height="40" as="geometry" />
        </mxCell>
        <mxCell id="LUNA-PoPyeFDFRL9OIlv-104" value="Idioma" style="whiteSpace=wrap;html=1;align=center;" vertex="1" parent="1">
          <mxGeometry x="777" y="100" width="100" height="40" as="geometry" />
        </mxCell>
        <mxCell id="LUNA-PoPyeFDFRL9OIlv-105" value="Multimedia" style="whiteSpace=wrap;html=1;align=center;" vertex="1" parent="1">
          <mxGeometry x="340" y="415" width="100" height="40" as="geometry" />
        </mxCell>
        <mxCell id="LUNA-PoPyeFDFRL9OIlv-106" value="Caracteres" style="shape=ext;margin=3;double=1;whiteSpace=wrap;html=1;align=center;" vertex="1" parent="1">
          <mxGeometry x="940.0000000000001" y="195" width="100" height="40" as="geometry" />
        </mxCell>
        <mxCell id="LUNA-PoPyeFDFRL9OIlv-111" style="edgeStyle=orthogonalEdgeStyle;rounded=0;orthogonalLoop=1;jettySize=auto;html=1;entryX=0.5;entryY=0;entryDx=0;entryDy=0;endArrow=none;endFill=0;exitX=0.5;exitY=1;exitDx=0;exitDy=0;" edge="1" parent="1" source="LUNA-PoPyeFDFRL9OIlv-107" target="LUNA-PoPyeFDFRL9OIlv-106">
          <mxGeometry relative="1" as="geometry" />
        </mxCell>
        <mxCell id="LUNA-PoPyeFDFRL9OIlv-114" value="N" style="edgeLabel;html=1;align=center;verticalAlign=middle;resizable=0;points=[];" vertex="1" connectable="0" parent="LUNA-PoPyeFDFRL9OIlv-111">
          <mxGeometry x="0.7508" y="1" relative="1" as="geometry">
            <mxPoint as="offset" />
          </mxGeometry>
        </mxCell>
        <mxCell id="LUNA-PoPyeFDFRL9OIlv-112" style="edgeStyle=orthogonalEdgeStyle;rounded=0;orthogonalLoop=1;jettySize=auto;html=1;entryX=1;entryY=0.5;entryDx=0;entryDy=0;endArrow=none;endFill=0;" edge="1" parent="1" source="LUNA-PoPyeFDFRL9OIlv-107" target="LUNA-PoPyeFDFRL9OIlv-104">
          <mxGeometry relative="1" as="geometry" />
        </mxCell>
        <mxCell id="LUNA-PoPyeFDFRL9OIlv-115" value="1" style="edgeLabel;html=1;align=center;verticalAlign=middle;resizable=0;points=[];" vertex="1" connectable="0" parent="LUNA-PoPyeFDFRL9OIlv-112">
          <mxGeometry x="0.7413" y="1" relative="1" as="geometry">
            <mxPoint as="offset" />
          </mxGeometry>
        </mxCell>
        <mxCell id="LUNA-PoPyeFDFRL9OIlv-107" value="Contiene" style="shape=rhombus;double=1;perimeter=rhombusPerimeter;whiteSpace=wrap;html=1;align=center;" vertex="1" parent="1">
          <mxGeometry x="930" y="90" width="120" height="60" as="geometry" />
        </mxCell>
        <mxCell id="LUNA-PoPyeFDFRL9OIlv-109" style="edgeStyle=orthogonalEdgeStyle;rounded=0;orthogonalLoop=1;jettySize=auto;html=1;entryX=0.5;entryY=1;entryDx=0;entryDy=0;endArrow=none;endFill=0;exitX=0.5;exitY=0;exitDx=0;exitDy=0;" edge="1" parent="1" source="LUNA-PoPyeFDFRL9OIlv-110" target="LUNA-PoPyeFDFRL9OIlv-106">
          <mxGeometry relative="1" as="geometry">
            <mxPoint x="1027.18" y="295" as="sourcePoint" />
          </mxGeometry>
        </mxCell>
        <mxCell id="LUNA-PoPyeFDFRL9OIlv-110" value="&lt;span style=&quot;border-bottom: 1px dotted&quot;&gt;Caracter&lt;/span&gt;" style="ellipse;whiteSpace=wrap;html=1;align=center;" vertex="1" parent="1">
          <mxGeometry x="940" y="270" width="100" height="40" as="geometry" />
        </mxCell>
        <mxCell id="LUNA-PoPyeFDFRL9OIlv-118" style="edgeStyle=orthogonalEdgeStyle;rounded=0;orthogonalLoop=1;jettySize=auto;html=1;entryX=0;entryY=0.5;entryDx=0;entryDy=0;endArrow=none;endFill=0;" edge="1" parent="1" source="LUNA-PoPyeFDFRL9OIlv-116" target="LUNA-PoPyeFDFRL9OIlv-104">
          <mxGeometry relative="1" as="geometry" />
        </mxCell>
        <mxCell id="LUNA-PoPyeFDFRL9OIlv-119" value="1" style="edgeLabel;html=1;align=center;verticalAlign=middle;resizable=0;points=[];" vertex="1" connectable="0" parent="LUNA-PoPyeFDFRL9OIlv-118">
          <mxGeometry x="0.7413" relative="1" as="geometry">
            <mxPoint as="offset" />
          </mxGeometry>
        </mxCell>
        <mxCell id="LUNA-PoPyeFDFRL9OIlv-116" value="Escrito en" style="shape=rhombus;perimeter=rhombusPerimeter;whiteSpace=wrap;html=1;align=center;" vertex="1" parent="1">
          <mxGeometry x="590" y="90" width="120" height="60" as="geometry" />
        </mxCell>
        <mxCell id="LUNA-PoPyeFDFRL9OIlv-129" style="edgeStyle=orthogonalEdgeStyle;rounded=0;orthogonalLoop=1;jettySize=auto;html=1;entryX=0;entryY=0.5;entryDx=0;entryDy=0;endArrow=none;endFill=0;" edge="1" parent="1" source="LUNA-PoPyeFDFRL9OIlv-121" target="LUNA-PoPyeFDFRL9OIlv-105">
          <mxGeometry relative="1" as="geometry" />
        </mxCell>
        <mxCell id="LUNA-PoPyeFDFRL9OIlv-121" value="URL" style="ellipse;whiteSpace=wrap;html=1;align=center;fontStyle=4;" vertex="1" parent="1">
          <mxGeometry x="190" y="355" width="100" height="40" as="geometry" />
        </mxCell>
        <mxCell id="LUNA-PoPyeFDFRL9OIlv-130" style="edgeStyle=orthogonalEdgeStyle;rounded=0;orthogonalLoop=1;jettySize=auto;html=1;endArrow=none;endFill=0;" edge="1" parent="1" source="LUNA-PoPyeFDFRL9OIlv-122">
          <mxGeometry relative="1" as="geometry">
            <mxPoint x="340" y="435" as="targetPoint" />
          </mxGeometry>
        </mxCell>
        <mxCell id="LUNA-PoPyeFDFRL9OIlv-122" value="Tipo" style="ellipse;whiteSpace=wrap;html=1;align=center;" vertex="1" parent="1">
          <mxGeometry x="190" y="415" width="100" height="40" as="geometry" />
        </mxCell>
        <mxCell id="LUNA-PoPyeFDFRL9OIlv-131" style="edgeStyle=orthogonalEdgeStyle;rounded=0;orthogonalLoop=1;jettySize=auto;html=1;endArrow=none;endFill=0;entryX=0;entryY=0.5;entryDx=0;entryDy=0;" edge="1" parent="1" source="LUNA-PoPyeFDFRL9OIlv-123" target="LUNA-PoPyeFDFRL9OIlv-105">
          <mxGeometry relative="1" as="geometry">
            <mxPoint x="340" y="435" as="targetPoint" />
          </mxGeometry>
        </mxCell>
        <mxCell id="LUNA-PoPyeFDFRL9OIlv-123" value="Descripción" style="ellipse;whiteSpace=wrap;html=1;align=center;" vertex="1" parent="1">
          <mxGeometry x="190" y="475" width="100" height="40" as="geometry" />
        </mxCell>
        <mxCell id="LUNA-PoPyeFDFRL9OIlv-125" style="edgeStyle=orthogonalEdgeStyle;rounded=0;orthogonalLoop=1;jettySize=auto;html=1;entryX=0.347;entryY=1;entryDx=0;entryDy=0;endArrow=none;endFill=0;entryPerimeter=0;" edge="1" parent="1" source="LUNA-PoPyeFDFRL9OIlv-124" target="LUNA-PoPyeFDFRL9OIlv-75">
          <mxGeometry relative="1" as="geometry" />
        </mxCell>
        <mxCell id="LUNA-PoPyeFDFRL9OIlv-128" value="1" style="edgeLabel;html=1;align=center;verticalAlign=middle;resizable=0;points=[];" vertex="1" connectable="0" parent="LUNA-PoPyeFDFRL9OIlv-125">
          <mxGeometry x="0.7556" y="-2" relative="1" as="geometry">
            <mxPoint x="-1.7" y="-0.3" as="offset" />
          </mxGeometry>
        </mxCell>
        <mxCell id="LUNA-PoPyeFDFRL9OIlv-126" style="edgeStyle=orthogonalEdgeStyle;rounded=0;orthogonalLoop=1;jettySize=auto;html=1;entryX=1;entryY=0.5;entryDx=0;entryDy=0;endArrow=none;endFill=0;exitX=0;exitY=0.5;exitDx=0;exitDy=0;" edge="1" parent="1" source="LUNA-PoPyeFDFRL9OIlv-124" target="LUNA-PoPyeFDFRL9OIlv-105">
          <mxGeometry relative="1" as="geometry">
            <mxPoint x="390" y="355" as="sourcePoint" />
          </mxGeometry>
        </mxCell>
        <mxCell id="LUNA-PoPyeFDFRL9OIlv-127" value="N" style="edgeLabel;html=1;align=center;verticalAlign=middle;resizable=0;points=[];" vertex="1" connectable="0" parent="LUNA-PoPyeFDFRL9OIlv-126">
          <mxGeometry x="0.6917" y="-1" relative="1" as="geometry">
            <mxPoint as="offset" />
          </mxGeometry>
        </mxCell>
        <mxCell id="LUNA-PoPyeFDFRL9OIlv-124" value="Contiene" style="shape=rhombus;perimeter=rhombusPerimeter;whiteSpace=wrap;html=1;align=center;" vertex="1" parent="1">
          <mxGeometry x="465" y="405" width="120" height="60" as="geometry" />
        </mxCell>
        <mxCell id="NvSHbqSQvRT90MNqPqhs-1" value="Dado que el estado de un usuario puede llegar a modifcarse a voluntad, se deja como un campo libre.También puede añadirse una entidad Estados cuyas ocurrencias sean los estados básicos, pero en cualquier caso, debe tenerse en cuenta que el estado puede no ser uno de esos estados básicos." style="shape=note;size=20;whiteSpace=wrap;html=1;" vertex="1" parent="1">
          <mxGeometry x="20" y="30" width="290" height="140" as="geometry" />
        </mxCell>
        <mxCell id="NvSHbqSQvRT90MNqPqhs-2" value="&lt;div align=&quot;left&quot;&gt;El estado de un mensaje puede modelarse de dos modos:&lt;/div&gt;&lt;div align=&quot;left&quot;&gt;&lt;ol&gt;&lt;li&gt;Con un atributo y restringiendo su dominio a uno de los posibles valores.&lt;/li&gt;&lt;li&gt;Creando una tabla de estados.&lt;/li&gt;&lt;/ol&gt;&lt;div&gt;Ambas son válidas, pero suele ser más flexible el uso de una tabla. Como más adelante nos piden añadir un nuevo estado, el cambio teniendo una tabla es simplemente añadir un nuevo registro.&lt;br&gt;&lt;/div&gt;&lt;/div&gt;" style="shape=note;size=20;whiteSpace=wrap;html=1;" vertex="1" parent="1">
          <mxGeometry x="740" y="370" width="300" height="195" as="geometry" />
        </mxCell>
        <mxCell id="NvSHbqSQvRT90MNqPqhs-5" style="edgeStyle=orthogonalEdgeStyle;rounded=0;orthogonalLoop=1;jettySize=auto;html=1;entryX=0.5;entryY=0;entryDx=0;entryDy=0;endArrow=none;endFill=0;" edge="1" parent="1" source="NvSHbqSQvRT90MNqPqhs-3" target="NvSHbqSQvRT90MNqPqhs-4">
          <mxGeometry relative="1" as="geometry" />
        </mxCell>
        <mxCell id="NvSHbqSQvRT90MNqPqhs-6" value="1" style="edgeLabel;html=1;align=center;verticalAlign=middle;resizable=0;points=[];" vertex="1" connectable="0" parent="NvSHbqSQvRT90MNqPqhs-5">
          <mxGeometry x="0.6706" relative="1" as="geometry">
            <mxPoint as="offset" />
          </mxGeometry>
        </mxCell>
        <mxCell id="NvSHbqSQvRT90MNqPqhs-3" value="Está en" style="shape=rhombus;perimeter=rhombusPerimeter;whiteSpace=wrap;html=1;align=center;" vertex="1" parent="1">
          <mxGeometry x="610" y="405" width="120" height="60" as="geometry" />
        </mxCell>
        <mxCell id="NvSHbqSQvRT90MNqPqhs-4" value="Estado" style="whiteSpace=wrap;html=1;align=center;" vertex="1" parent="1">
          <mxGeometry x="620" y="515" width="100" height="40" as="geometry" />
        </mxCell>
      </root>
    </mxGraphModel>
  </diagram>
  <diagram id="z0Oqytf2MZbapxVlBdW4" name="Ej2 - E/R Con palabras">
    <mxGraphModel dx="1422" dy="791" grid="1" gridSize="10" guides="1" tooltips="1" connect="1" arrows="1" fold="1" page="1" pageScale="1" pageWidth="1169" pageHeight="827" math="0" shadow="0">
      <root>
        <mxCell id="hJ-M5-NOlgMpDu_NgPSn-0" />
        <mxCell id="hJ-M5-NOlgMpDu_NgPSn-1" parent="hJ-M5-NOlgMpDu_NgPSn-0" />
      </root>
    </mxGraphModel>
  </diagram>
</mxfile>
